<?xml version="1.0" encoding="UTF-8"?>
<svg id="Layer_2" data-name="Layer 2" xmlns="http://www.w3.org/2000/svg" viewBox="0 0 16.06 16.03">
  <defs>
    <style>
      .cls-1 {
        fill: #fff;
        stroke-width: 0px;
      }
    </style>
  </defs>
  <g id="Layer_1-2" data-name="Layer 1">
    <path class="cls-1" d="M8.03,0C3.59,0,0,3.59,0,8.03c0,3.93,2.82,7.19,6.55,7.89v-6.22h-1.12v-1.56h1.12v-.36c0-1.07.29-2.13,1-2.81.61-.58,1.42-.8,2.15-.8.56,0,1,.1,1.32.2l-.14,1.61c-.24-.08-.51-.15-.9-.15-1.03,0-1.37.86-1.37,1.88v.42h1.79v1.56h-1.78v6.33c4.15-.31,7.43-3.77,7.43-8S12.46,0,8.03,0Z"/>
  </g>
</svg>