<?xml version="1.0" encoding="UTF-8"?>
<svg id="Layer_2" data-name="Layer 2" xmlns="http://www.w3.org/2000/svg" viewBox="0 0 109.31 109.57">
  <defs>
    <style>
      .cls-1 {
        fill: #898989;
        stroke-width: 0px;
      }
    </style>
  </defs>
  <g id="Layer_1-2" data-name="Layer 1">
    <g>
      <path class="cls-1" d="M26.83,25.14c3.52,3.5,6.86,6.91,10.3,10.22,1.45,1.4,2.42,2.93,1.61,4.87-.77,1.83-2.5,2.21-4.4,2.2-9.88-.04-19.76,0-29.65-.02-3.55,0-4.67-1.1-4.67-4.62C0,27.74.02,17.68,0,7.63c0-1.76.17-3.35,2.08-4.14,1.98-.82,3.32.16,4.63,1.48,3,3.04,6.1,5.98,9.02,9.09,1.12,1.19,1.65.65,2.55-.15C30.32,3.26,44.45-1.12,60.34.24c23.23,2,43.6,20.57,47.93,43.45,5.46,28.88-10.81,55.82-38.98,63.69-17.66,4.94-34,1.44-48.59-9.74-2.94-2.25-3.14-5.54-.57-8.23,1.15-1.2,2.16-2.61,3.71-3.33,2.27-1.05,4.26-.49,6.26,1.01,16.75,12.55,39.48,10.89,53.93-4.25,10.5-11,13.81-24.33,9.81-38.9-4.09-14.9-14.11-24.55-29.05-28.58-13.51-3.64-28.25.35-37.94,9.77Z"/>
      <path class="cls-1" d="M47.74,46.04c0-4.6-.03-9.21,0-13.81.03-3.69,2.01-5.66,5.73-5.77.92-.03,1.84-.05,2.76,0,3.39.19,5.38,2.19,5.4,5.61.05,6.86.06,13.73-.02,20.59-.02,1.49.4,2.48,1.61,3.36,2.49,1.82,4.93,3.72,7.29,5.71,2.7,2.27,2.93,5.07.81,7.91-.6.8-1.2,1.61-1.88,2.34-2.3,2.52-4.87,2.83-7.54.81-4.38-3.33-8.68-6.78-13.07-10.11-.94-.71-1.12-1.52-1.11-2.58.03-4.69.01-9.37.01-14.06Z"/>
    </g>
  </g>
</svg>