<?xml version="1.0" encoding="UTF-8"?>
<svg id="Layer_2" data-name="Layer 2" xmlns="http://www.w3.org/2000/svg" viewBox="0 0 14.62 14.04">
  <defs>
    <style>
      .cls-1 {
        fill: #fff;
        stroke-width: 0px;
      }
    </style>
  </defs>
  <g id="Layer_1-2" data-name="Layer 1">
    <g>
      <path class="cls-1" d="M12.57,0H2.04C.91,0,0,.91,0,2.04v9.96c0,1.13.91,2.04,2.04,2.04h10.53c1.13,0,2.04-.91,2.04-2.04V2.04c0-1.13-.91-2.04-2.04-2.04ZM12.96,10.87c0,.87-.71,1.58-1.58,1.58H3.24c-.87,0-1.58-.71-1.58-1.58V3.17c0-.87.71-1.58,1.58-1.58h8.14c.87,0,1.58.71,1.58,1.58v7.69Z"/>
      <path class="cls-1" d="M7.28,3.13c-2.08,0-3.77,1.69-3.77,3.77s1.69,3.77,3.77,3.77,3.77-1.69,3.77-3.77-1.69-3.77-3.77-3.77ZM7.28,9.04c-1.18,0-2.14-.96-2.14-2.14s.96-2.14,2.14-2.14,2.14.96,2.14,2.14-.96,2.14-2.14,2.14Z"/>
    </g>
  </g>
</svg>