<?xml version="1.0" encoding="UTF-8"?>
<svg id="Layer_2" data-name="Layer 2" xmlns="http://www.w3.org/2000/svg" viewBox="0 0 15.19 14.13">
  <defs>
    <style>
      .cls-1 {
        fill: #fff;
        stroke-width: 0px;
      }
    </style>
  </defs>
  <g id="Layer_1-2" data-name="Layer 1">
    <path class="cls-1" d="M0,0v14.13h15.19V0H0ZM4.87,11.57h-1.48V3.49h1.48v8.08ZM11.86,11.57h-1.48v-3.3c0-.84-.31-1.48-1.12-1.48-.59,0-1,.42-1.15.86-.05.12-.07.3-.07.47v3.44h-1.48v-4.1c0-.67-.02-1.24-.05-1.74h1.28l.07.88h.04c.26-.46.9-1.01,1.87-1.01,1.02,0,2.07.66,2.07,2.51v3.47Z"/>
  </g>
</svg>