<?xml version="1.0" encoding="UTF-8"?>
<svg id="Layer_2" data-name="Layer 2" xmlns="http://www.w3.org/2000/svg" viewBox="0 0 117.64 117.64">
  <defs>
    <style>
      .cls-1 {
        fill: #898989;
        stroke-width: 0px;
      }
    </style>
  </defs>
  <g id="Layer_1-2" data-name="Layer 1">
    <g>
      <path class="cls-1" d="M58.82,0C26.33,0,0,26.33,0,58.82s26.33,58.82,58.82,58.82,58.82-26.33,58.82-58.82S91.3,0,58.82,0ZM58.82,100.41c-22.97,0-41.59-18.62-41.59-41.59S35.85,17.23,58.82,17.23s41.59,18.62,41.59,41.59-18.62,41.59-41.59,41.59Z"/>
      <path class="cls-1" d="M58.82,29.34c-16.28,0-29.48,13.2-29.48,29.48s13.2,29.48,29.48,29.48,29.48-13.2,29.48-29.48-13.2-29.48-29.48-29.48ZM58.82,74.08c-8.43,0-15.26-6.83-15.26-15.26s6.83-15.26,15.26-15.26,15.26,6.83,15.26,15.26-6.83,15.26-15.26,15.26Z"/>
    </g>
  </g>
</svg>