<?xml version="1.0" encoding="UTF-8"?>
<svg id="Layer_2" data-name="Layer 2" xmlns="http://www.w3.org/2000/svg" viewBox="0 0 110.08 110.08">
  <defs>
    <style>
      .cls-1 {
        fill: #898989;
        stroke-width: 0px;
      }
    </style>
  </defs>
  <g id="Layer_1-2" data-name="Layer 1">
    <path class="cls-1" d="M22.36,48.16H5.16c-2.85,0-5.16,2.31-5.16,5.16v51.6c0,2.85,2.31,5.16,5.16,5.16h17.2c2.85,0,5.16-2.31,5.16-5.16v-51.6c0-2.85-2.31-5.16-5.16-5.16ZM13.76,101.48c-2.85,0-5.16-2.31-5.16-5.16s2.31-5.16,5.16-5.16,5.16,2.31,5.16,5.16-2.31,5.16-5.16,5.16ZM82.56,17.51c0,9.12-5.58,14.24-7.15,20.33h21.87c7.18,0,12.77,5.97,12.8,12.49.02,3.86-1.62,8.01-4.18,10.58l-.02.02c2.11,5.02,1.77,12.05-2,17.09,1.87,5.57-.01,12.41-3.52,16.07.92,3.78.48,7-1.32,9.6-4.39,6.3-15.26,6.39-24.46,6.39h-.61c-10.38,0-18.88-3.78-25.71-6.82-3.43-1.53-7.92-3.42-11.32-3.48-1.41-.03-2.53-1.17-2.53-2.58v-45.96c0-.69.28-1.35.76-1.83,8.52-8.42,12.18-17.33,19.16-24.32,3.18-3.19,4.34-8.01,5.46-12.66.96-3.98,2.96-12.43,7.3-12.43,5.16,0,15.48,1.72,15.48,17.51Z"/>
  </g>
</svg>